<?xml version="1.0" standalone="no"?>
<!DOCTYPE svg PUBLIC "-//W3C//DTD SVG 20010904//EN"
 "http://www.w3.org/TR/2001/REC-SVG-20010904/DTD/svg10.dtd">
<svg version="1.0" xmlns="http://www.w3.org/2000/svg"
 width="260.000000pt" height="260.000000pt" viewBox="0 0 260.000000 260.000000"
 preserveAspectRatio="xMidYMid meet">
<metadata>
Created by potrace 1.14, written by Peter Selinger 2001-2017
</metadata>
<g transform="translate(0.000000,260.000000) scale(0.100000,-0.100000)"
fill="#000000" stroke="none">
<path d="M1132 2560 c-477 -67 -882 -400 -1032 -849 -53 -158 -63 -222 -64
-406 -1 -188 13 -273 66 -425 149 -421 503 -730 948 -826 119 -26 381 -26 500
0 445 96 799 405 948 826 53 152 67 237 66 425 -1 185 -11 248 -65 409 -119
355 -410 651 -769 781 -129 46 -234 65 -390 70 -80 2 -173 0 -208 -5z m231
-505 c70 -18 119 -42 180 -89 l47 -36 0 55 0 55 141 0 140 0 -3 -552 c-5 -600
-5 -603 -63 -724 -55 -113 -190 -207 -340 -239 -90 -19 -242 -19 -341 0 -161
31 -288 121 -358 255 -20 37 -36 71 -36 74 0 3 67 6 150 6 l150 0 45 -35 c59
-45 111 -59 215 -60 116 0 173 18 231 74 49 49 69 103 69 192 l0 39 -50 -39
c-69 -55 -147 -82 -250 -88 -162 -10 -279 35 -396 151 -141 141 -193 336 -148
553 41 199 184 359 365 407 71 19 181 20 252 1z"/>
<path d="M1226 1809 c-88 -21 -176 -107 -202 -197 -23 -80 -15 -192 18 -257
107 -208 407 -219 519 -19 54 95 54 243 1 338 -64 114 -198 167 -336 135z"/>
</g>
</svg>
